<svg xmlns="http://www.w3.org/2000/svg" viewBox="0 0 24 24" fill="none" stroke="currentColor" stroke-width="1.5">
  <defs>
    <linearGradient id="cyberLikeGrad" x1="0%" y1="0%" x2="100%" y2="100%">
      <stop offset="0%" style="stop-color:#ff0066"/>
      <stop offset="50%" style="stop-color:#ff00ff"/>
      <stop offset="100%" style="stop-color:#ff0066"/>
    </linearGradient>
    <filter id="cyberGlowLike">
      <feGaussianBlur in="SourceGraphic" stdDeviation="1.2" result="blur"/>
      <feMerge>
        <feMergeNode in="blur"/>
        <feMergeNode in="SourceGraphic"/>
      </feMerge>
    </filter>
  </defs>
  <path d="M12 21.35l-1.45-1.32C5.4 15.36 2 12.28 2 8.5 2 5.42 4.42 3 7.5 3c1.74 0 3.41.81 4.5 2.09C13.09 3.81 14.76 3 16.5 3 19.58 3 22 5.42 22 8.5c0 3.78-3.4 6.86-8.55 11.54L12 21.35z"
        stroke="url(#cyberLikeGrad)"
        filter="url(#cyberGlowLike)"
        stroke-linecap="round"
        stroke-linejoin="round"/>
  <path d="M12 5.5l-1 1M12 5.5l1 1M12 8v3"
        stroke="url(#cyberLikeGrad)"
        filter="url(#cyberGlowLike)"
        stroke-linecap="round"
        stroke-width="1"/>
  <polygon points="12,6 11,7 12,8 13,7" fill="#ff00ff" opacity="0.4" filter="url(#cyberGlowLike)"/>
  <circle cx="12" cy="14" r="2" fill="#ff0066" opacity="0.2" filter="url(#cyberGlowLike)"/>
</svg>
